<svg xmlns="http://www.w3.org/2000/svg" version="1.1" xmlns:xlink="http://www.w3.org/1999/xlink" xmlns:svgjs="http://svgjs.dev/svgjs" width="1000" height="623" viewBox="0 0 1000 623"><g transform="matrix(1,0,0,1,-0.6060606060606233,0.2522267206477409)"><svg viewBox="0 0 396 247" data-background-color="#111111" preserveAspectRatio="xMidYMid meet" height="623" width="1000" xmlns="http://www.w3.org/2000/svg" xmlns:xlink="http://www.w3.org/1999/xlink"><g id="tight-bounds" transform="matrix(1,0,0,1,0.2400000000000091,-0.09999999999999432)"><svg viewBox="0 0 395.52 247.2" height="247.2" width="395.52"><g><svg></svg></g><g><svg viewBox="0 0 395.52 247.2" height="247.2" width="395.52"><g><path xmlns="http://www.w3.org/2000/svg" d="M55.039 247.2l39.404-68.25 206.634 0 39.404 68.25zM197.76 0l39.404 68.25-78.808 0z" fill="#ed1b24" fill-rule="nonzero" stroke="none" stroke-width="1" stroke-linecap="butt" stroke-linejoin="miter" stroke-miterlimit="10" stroke-dasharray="" stroke-dashoffset="0" font-family="none" font-weight="none" font-size="none" text-anchor="none" style="mix-blend-mode: normal" data-fill-palette-color="tertiary"></path></g><g transform="matrix(1,0,0,1,12.174439320000005,84.06413495455948)"><svg viewBox="0 0 371.17112136 79.07173009088105" height="79.07173009088105" width="371.17112136"><g><svg viewBox="0 0 371.17112136 79.07173009088105" height="79.07173009088105" width="371.17112136"><g><svg viewBox="0 0 371.17112136 79.07173009088105" height="79.07173009088105" width="371.17112136"><g><path d="M0 79.072v-79.072h371.171v79.072z" fill="#ed1b24" stroke="transparent" stroke-width="0" rx="0%" data-fill-palette-color="tertiary"></path><path d="M2.029 77.043v-75.014h367.113v75.014z" fill="#ffffff" stroke="transparent" stroke-width="0" rx="0%" data-fill-palette-color="quaternary"></path><path d="M6.087 72.985v-66.898h358.997v66.898z" fill="#ed1b24" stroke="transparent" stroke-width="0" data-fill-palette-color="tertiary"></path></g><g transform="matrix(1,0,0,1,12.17443932,12.17443932)" id="textblocktransform"><svg viewBox="0 0 346.82224271999996 54.722851450881045" height="54.722851450881045" width="346.82224271999996" id="textblock"><g><svg viewBox="0 0 346.82224271999996 31.313167497454295" height="31.313167497454295" width="346.82224271999996"><g transform="matrix(1,0,0,1,0,0)"><svg width="346.82224271999996" viewBox="0.28166669607162476 -38.22999954223633 435.59832763671875 39.32999801635742" height="31.313167497454295" data-palette-color="#ffffff"><path d="M1.2 0.37Q0.73 0.32 0.49-0.05 0.24-0.42 0.29-0.85L0.29-0.85Q0.42-1.61 0.76-2.25 1.1-2.88 1.26-3.2 1.42-3.52 1.59-3.91L1.59-3.91 2.51-6.05 12.55-36.11 23.34-15.26 33.81-36.11 46.34 0 33.23 0 27.17-18.65 17.8 0.88 7.93-16.7 4.52-6.03Q3.71-4.25 3.37-3 3.03-1.76 2.81-1.07L2.81-1.07Q2.32 0.46 1.2 0.37L1.2 0.37ZM48.92-13.18L48.92-13.18Q48.92-16.11 49.99-18.52 51.05-20.92 52.9-22.71L52.9-22.71Q56.91-26.51 62.96-26.51L62.96-26.51Q69.14-26.51 73.02-22.56L73.02-22.56Q76.73-18.82 76.73-13.11L76.73-13.11Q76.73-7.37 72.92-3.52L72.92-3.52Q68.99 0.46 62.86 0.46L62.86 0.46Q56.88 0.46 52.95-3.32L52.95-3.32Q48.92-7.23 48.92-13.18ZM62.18-24.71L62.18-1.37Q62.38-1.34 62.57-1.34L62.57-1.34 62.91-1.34Q67.84-1.34 71.19-4.39L71.19-4.39Q74.75-7.69 74.75-13.04L74.75-13.04Q74.75-18.26 71.41-21.51L71.41-21.51Q68.11-24.73 62.89-24.73L62.89-24.73 62.52-24.73Q62.35-24.73 62.18-24.71L62.18-24.71ZM92.26 1.1L78.85-26.07 89.91-26.07 96.55-12.38 100.73-20.68Q102.02-23.34 102.35-24.63 102.68-25.93 103.01-26.22 103.34-26.51 103.82-26.51 104.29-26.51 104.56-26.2 104.83-25.88 104.83-25.56 104.83-25.24 104.77-24.93 104.71-24.61 104.54-24.07L104.54-24.07Q104.17-23.07 103-20.61L103-20.61 92.26 1.1ZM114.2-30.35Q111.69-30.35 110.27-31.47 108.85-32.59 108.85-34.42L108.85-34.42Q108.85-35.96 110.42-37.06L110.42-37.06Q112.08-38.23 113.93-38.23 115.79-38.23 116.8-37.87 117.81-37.5 118.52-36.91L118.52-36.91Q119.94-35.72 119.94-34.13L119.94-34.13Q119.94-32.54 118.33-31.45L118.33-31.45Q116.72-30.35 114.2-30.35ZM109.07 0L109.07-26.07 119.57-26.07 119.57 0 109.07 0ZM150.21-5.93L150.21-5.93Q151.16-5.93 151.16-5.05L151.16-5.05Q151.16-4.39 150.31-3.49L150.31-3.49Q146.45 0.46 139.74 0.46L139.74 0.46Q133.71 0.46 129.58-3.17L129.58-3.17Q125.31-6.96 125.31-12.74L125.31-12.74Q125.31-18.65 129.16-22.46L129.16-22.46Q133.24-26.51 140-26.51L140-26.51Q145.42-26.51 149.11-23.22L149.11-23.22Q153.09-19.68 153.09-13.92L153.09-13.92Q153.09-13.09 153.04-12.16L153.04-12.16 136.93-12.16 136.93-1.68Q138.59-1.34 140.66-1.34L140.66-1.34Q145.06-1.34 148.16-4.25L148.16-4.25Q148.79-4.88 149.06-5.25L149.06-5.25Q149.62-5.93 150.21-5.93ZM143.69-13.94L143.69-24.27Q142.1-24.73 140.1-24.73 138.1-24.73 136.93-24.46L136.93-24.46 136.93-13.94 143.69-13.94ZM198.52-5.79L198.52-5.79Q199.52-5.79 199.52-4.66L199.52-4.66Q199.52-3.74 198.11-2.81L198.11-2.81Q195.47-1.07 193.66-0.54L193.66-0.54Q190.27 0.46 186.53 0.46 182.8 0.46 179.34-0.87 175.89-2.2 173.45-4.59L173.45-4.59Q168.34-9.62 168.34-17.58L168.34-17.58Q168.34-21.41 169.78-24.62 171.23-27.83 173.76-30.13L173.76-30.13Q179.14-34.99 187.27-34.99L187.27-34.99Q191.83-34.99 195.3-33.42L195.3-33.42Q198.98-31.79 198.98-30.64L198.98-30.64Q198.98-30.18 198.68-29.83 198.37-29.49 197.98-29.49L197.98-29.49Q197.2-29.49 196.57-30.19 195.93-30.88 194.85-31.45 193.76-32.01 192.47-32.42L192.47-32.42Q189.83-33.23 187.67-33.23 185.51-33.23 184.09-32.93L184.09-32.93 184.09-1.64Q185.8-1.34 187.12-1.34 188.44-1.34 189.8-1.51 191.17-1.68 192.49-2.08L192.49-2.08Q195.44-2.95 196.93-4.66L196.93-4.66Q197.47-5.3 197.79-5.54 198.11-5.79 198.52-5.79ZM203.23-13.18L203.23-13.18Q203.23-16.11 204.29-18.52 205.35-20.92 207.21-22.71L207.21-22.71Q211.21-26.51 217.27-26.51L217.27-26.51Q223.44-26.51 227.33-22.56L227.33-22.56Q231.04-18.82 231.04-13.11L231.04-13.11Q231.04-7.37 227.23-3.52L227.23-3.52Q223.3 0.46 217.17 0.46L217.17 0.46Q211.19 0.46 207.26-3.32L207.26-3.32Q203.23-7.23 203.23-13.18ZM216.49-24.71L216.49-1.37Q216.68-1.34 216.88-1.34L216.88-1.34 217.22-1.34Q222.15-1.34 225.5-4.39L225.5-4.39Q229.06-7.69 229.06-13.04L229.06-13.04Q229.06-18.26 225.71-21.51L225.71-21.51Q222.42-24.73 217.19-24.73L217.19-24.73 216.83-24.73Q216.66-24.73 216.49-24.71L216.49-24.71ZM237.28 0L237.28-34.55 247.78-34.55 247.78 0 237.28 0ZM255.76 0L255.76-34.55 266.26-34.55 266.26 0 255.76 0ZM296.9-5.93L296.9-5.93Q297.85-5.93 297.85-5.05L297.85-5.05Q297.85-4.39 297-3.49L297-3.49Q293.14 0.46 286.43 0.46L286.43 0.46Q280.39 0.46 276.27-3.17L276.27-3.17Q272-6.96 272-12.74L272-12.74Q272-18.65 275.85-22.46L275.85-22.46Q279.93-26.51 286.69-26.51L286.69-26.51Q292.11-26.51 295.8-23.22L295.8-23.22Q299.78-19.68 299.78-13.92L299.78-13.92Q299.78-13.09 299.73-12.16L299.73-12.16 283.62-12.16 283.62-1.68Q285.28-1.34 287.35-1.34L287.35-1.34Q291.75-1.34 294.85-4.25L294.85-4.25Q295.48-4.88 295.75-5.25L295.75-5.25Q296.31-5.93 296.9-5.93ZM290.38-13.94L290.38-24.27Q288.79-24.73 286.79-24.73 284.79-24.73 283.62-24.46L283.62-24.46 283.62-13.94 290.38-13.94ZM315.74-24.54L315.74-1.56Q316.89-1.34 318.05-1.34 319.21-1.34 320.3-1.53 321.38-1.71 322.36-2.05L322.36-2.05Q324.44-2.78 325.7-3.91L325.7-3.91Q326.61-4.69 327.02-4.69L327.02-4.69Q327.95-4.69 327.95-3.86 327.95-3.03 326.44-1.88L326.44-1.88Q322.92 0.46 317.99 0.46L317.99 0.46Q311.57 0.46 307.61-3.39L307.61-3.39Q303.73-7.2 303.73-13.28L303.73-13.28Q303.73-19.04 307.86-22.8L307.86-22.8Q311.96-26.51 318.16-26.51L318.16-26.51Q321.7-26.51 324.97-25.05L324.97-25.05Q327.46-23.97 327.46-22.83L327.46-22.83Q327.46-22.34 327.18-22.08 326.9-21.83 326.56-21.83L326.56-21.83Q326.05-21.83 325.24-22.39L325.24-22.39Q323.65-23.9 320.53-24.51L320.53-24.51Q319.41-24.73 318.06-24.73 316.72-24.73 315.74-24.54L315.74-24.54ZM343.55 0.46L343.55 0.46Q333.98 0.46 333.98-8.28L333.98-8.28 333.95-24.29 331.15-24.17Q329.83-24.17 329.83-25.17 329.83-26.17 331.24-26.17L331.24-26.17 333.59-26.07 333.95-26.07 333.95-29.86 344.43-34.55 344.43-26.07 347.7-26.07 350.02-26.17Q351.46-26.17 351.46-25.15L351.46-25.15Q351.46-24.68 351.06-24.43 350.65-24.17 350.14-24.17L350.14-24.17 347.11-24.29 344.43-24.29 344.43-1.34Q347.28-1.39 349.19-2.98L349.19-2.98Q350.09-3.66 350.47-4.74 350.85-5.81 351.15-6.12 351.46-6.42 351.87-6.42L351.87-6.42Q352.29-6.42 352.58-6.09 352.88-5.76 352.88-5.31 352.88-4.86 352.63-4.31 352.39-3.76 351.9-3.15L351.9-3.15Q350.8-1.78 349.36-0.98L349.36-0.98Q346.75 0.46 343.55 0.46ZM362.15-30.35Q359.64-30.35 358.22-31.47 356.8-32.59 356.8-34.42L356.8-34.42Q356.8-35.96 358.37-37.06L358.37-37.06Q360.03-38.23 361.88-38.23 363.74-38.23 364.75-37.87 365.76-37.5 366.47-36.91L366.47-36.91Q367.89-35.72 367.89-34.13L367.89-34.13Q367.89-32.54 366.28-31.45L366.28-31.45Q364.66-30.35 362.15-30.35ZM357.02 0L357.02-26.07 367.52-26.07 367.52 0 357.02 0ZM373.26-13.18L373.26-13.18Q373.26-16.11 374.32-18.52 375.38-20.92 377.24-22.71L377.24-22.71Q381.24-26.51 387.29-26.51L387.29-26.51Q393.47-26.51 397.35-22.56L397.35-22.56Q401.06-18.82 401.06-13.11L401.06-13.11Q401.06-7.37 397.26-3.52L397.26-3.52Q393.32 0.46 387.2 0.46L387.2 0.46Q381.22 0.46 377.28-3.32L377.28-3.32Q373.26-7.23 373.26-13.18ZM386.51-24.71L386.51-1.37Q386.71-1.34 386.9-1.34L386.9-1.34 387.25-1.34Q392.18-1.34 395.52-4.39L395.52-4.39Q399.09-7.69 399.09-13.04L399.09-13.04Q399.09-18.26 395.74-21.51L395.74-21.51Q392.45-24.73 387.22-24.73L387.22-24.73 386.85-24.73Q386.68-24.73 386.51-24.71L386.51-24.71ZM425.38 0L425.38-23.41Q424.77-23.8 424.06-23.8 423.35-23.8 422.59-23.47 421.84-23.14 421.01-22.56L421.01-22.56Q419.27-21.31 417.81-19.24L417.81-19.24 417.81 0 407.31 0 407.31-26.07 417.81-26.07 417.81-21.9Q421.98-26.51 427.26-26.51L427.26-26.51Q435.88-26.51 435.88-18.16L435.88-18.16 435.88 0 425.38 0Z" opacity="1" transform="matrix(1,0,0,1,0,0)" fill="#ffffff" class="wordmark-text-0" data-fill-palette-color="quaternary" id="text-0"></path></svg></g></svg></g><g transform="matrix(1,0,0,1,0,35.371313937454296)"><svg viewBox="0 0 346.82224271999996 19.351537513426752" height="19.351537513426752" width="346.82224271999996"><g transform="matrix(1,0,0,1,0,0)"><svg width="346.82224271999996" viewBox="2.9000000953674316 -33.650001525878906 624.5899658203125 34.85000228881836" height="19.351537513426752" data-palette-color="#ffffff"><path d="M8.7 0.15Q8.2 0.15 7.9 0.05L7.9 0.05 6.9 0.05 6 0.05 5.65 0.05 3.4-0.5 3.2-0.9Q3.15-0.9 3.15-1.45L3.15-1.45Q3.15-2.15 3.1-2.6L3.1-2.6 3.05-4.9Q3-5.65 3-7.15L3-7.15 2.9-11Q2.9-12.25 3-14.45L3-14.45 3.05-16.15Q3.15-17.75 3.15-21.4L3.15-21.4 3.15-21.75 3.15-22.4Q3.05-22.55 3.05-22.95L3.05-22.95 3-23.3Q3-24.55 3.15-25.9L3.15-25.9Q3.25-27.6 3.25-29L3.25-29 3.2-30.4Q3.15-30.95 3.15-31.7L3.15-31.7Q3.15-31.75 3.08-31.85 3-31.95 3-32.05L3-32.05Q3-32.55 3.4-32.9 3.8-33.25 4.4-33.4L4.4-33.4Q5.2-33.65 6.45-33.65L6.45-33.65 14.9-33.65 18.8-33.65Q18.85-33.65 18.95-33.55 19.05-33.45 19.15-33.4L19.15-33.4Q19.55-33.05 20.15-32.05L20.15-32.05Q20.3-31.75 20.48-31.38 20.65-31 20.95-30.2L20.95-30.2Q21.3-29.4 21.9-27.75L21.9-27.75 22.5-26.2Q22.9-25.45 23.4-24.05L23.4-24.05Q23.55-23.65 23.73-23.25 23.9-22.85 24.05-22.45L24.05-22.45Q24.15-22.1 24.28-21.93 24.4-21.75 24.4-21.7L24.4-21.7Q24.75-20.9 25.15-20.9L25.15-20.9Q25.65-20.9 25.95-21.7L25.95-21.7Q26-21.75 26.05-21.93 26.1-22.1 26.3-22.5L26.3-22.5 27.05-24.15 29.05-28.4 29.9-30.2Q30.05-30.6 30.13-30.88 30.2-31.15 30.3-31.25L30.3-31.25Q30.5-31.7 31.25-32.8L31.25-32.8Q31.5-33.2 31.7-33.4L31.7-33.4Q31.85-33.45 31.9-33.55 31.95-33.65 32.05-33.65L32.05-33.65 35.95-33.65 44.4-33.65 45.15-33.65 45.65-33.65 46.3-33.65 47.4-33.65Q47.5-33.65 47.65-32.9L47.65-32.9 47.8-28Q47.9-25.9 47.9-21.4L47.9-21.4 47.9-18.5Q47.9-16.8 47.75-14.7 47.6-12.6 47.55-12L47.55-12 47.45-11 47.45-9.25Q47.5-8.55 47.5-7.15L47.5-7.15Q47.5-5.65 47.55-4.9L47.55-4.9Q47.55-3.45 47.65-2.9L47.65-2.9 47.65-1.45 47.65-0.9 47.5-0.5 45.25 0.05 44.9 0.05 44 0.05 43 0.05Q42.65 0.15 42.15 0.15L42.15 0.15Q41.25 0.15 39.65 0.05L39.65 0.05 38.4 0Q38.05-0.05 37.6-0.1 37.15-0.15 36.5-0.15L36.5-0.15 34.55-0.3Q34.45-0.3 34.4-0.25L34.4-0.25 34-0.25Q33.75-0.25 33.7-0.8L33.7-0.8Q33.4-1.8 33.4-4.2L33.4-4.2Q33.4-5.8 33.35-6.7L33.35-6.7 33.3-9.4Q33.25-10.3 33.25-12L33.25-12Q33.25-12.4 32.9-12.4L32.9-12.4Q32.7-12.4 32.5-11.9L32.5-11.9 31.95-10.55 31.5-9.3Q31.4-9 31.3-8.7 31.2-8.4 31.05-8.15L31.05-8.15 30.8-7.55Q30.35-6.55 29.65-5.3L29.65-5.3Q28.9-3.95 27.8-3.15L27.8-3.15Q27.2-2.8 26.75-2.8L26.75-2.8 26-2.8Q25.4-2.8 25-2.9L25-2.9 23.9-2.9 22.9-2.9Q20.9-6.1 19.15-9.9L19.15-9.9 18.4-11.75Q18.1-12.4 18-12.4L18-12.4Q17.65-12.4 17.65-12L17.65-12 17.65-9.65Q17.65-6.15 17.55-4.5L17.55-4.5Q17.45-1.9 17.2-0.9L17.2-0.9Q17.15-0.25 16.9-0.25L16.9-0.25 16.55-0.25 16.3-0.3Q14.6-0.2 13.6-0.1L13.6-0.1Q13-0.05 11.5 0.05 10 0.15 8.7 0.15L8.7 0.15ZM617.69 1.2Q613.29 1.2 610.44 0.4L610.44 0.4Q606.64-0.65 604.54-3.65L604.54-3.65Q602.19-7 602.19-13.4L602.19-13.4Q602.19-17.3 603.24-20.43 604.29-23.55 606.29-25.7L606.29-25.7Q608.29-27.8 610.94-28.9 613.59-30 616.69-30L616.69-30Q621.89-30 627.49-26.75L627.49-26.75 626.84-21.15 625.69-21.4Q625.49-21.45 624.14-21.75 622.79-22.05 621.69-22.05L621.69-22.05Q619.34-22.05 618.19-20.45L618.19-20.45Q616.69-18.45 616.69-14L616.69-14Q616.69-10.35 617.74-8.5L617.74-8.5Q618.74-6.95 620.44-6.95L620.44-6.95Q621.64-6.95 623.24-7.75L623.24-7.75Q624.79-8.5 626.24-9.5L626.24-9.5 626.74-2.4Q624.99-0.75 622.44 0.2L622.44 0.2Q620.14 1.2 617.69 1.2L617.69 1.2Z" opacity="1" transform="matrix(1,0,0,1,0,0)" fill="#ffffff" class="slogan-text-1" data-fill-palette-color="quaternary" id="text-1"></path></svg></g></svg></g></svg></g></svg></g><g></g></svg></g></svg></g></svg></g><defs></defs></svg><rect width="395.52" height="247.2" fill="none" stroke="none" visibility="hidden"></rect></g></svg></g></svg>